<?xml version="1.0" encoding="UTF-8" standalone="no"?>
<!-- Created with Inkscape (http://www.inkscape.org/) -->

<svg
   xmlns:dc="http://purl.org/dc/elements/1.1/"
   xmlns:cc="http://creativecommons.org/ns#"
   xmlns:rdf="http://www.w3.org/1999/02/22-rdf-syntax-ns#"
   xmlns:svg="http://www.w3.org/2000/svg"
   xmlns="http://www.w3.org/2000/svg"
   xmlns:sodipodi="http://sodipodi.sourceforge.net/DTD/sodipodi-0.dtd"
   xmlns:inkscape="http://www.inkscape.org/namespaces/inkscape"
   width="210mm"
   height="297mm"
   viewBox="0 0 744.09448819 1052.3622047"
   id="svg2"
   version="1.1"
   inkscape:version="0.91 r13725"
   sodipodi:docname="drawing-1.svg">
  <defs
     id="defs4" />
  <sodipodi:namedview
     id="base"
     pagecolor="#ffffff"
     bordercolor="#666666"
     borderopacity="1.0"
     inkscape:pageopacity="0.0"
     inkscape:pageshadow="2"
     inkscape:zoom="1.979899"
     inkscape:cx="251.76838"
     inkscape:cy="991.32556"
     inkscape:document-units="px"
     inkscape:current-layer="layer1"
     showgrid="false"
     inkscape:window-width="1536"
     inkscape:window-height="801"
     inkscape:window-x="-8"
     inkscape:window-y="-8"
     inkscape:window-maximized="1" />
  <metadata
     id="metadata7">
    <rdf:RDF>
      <cc:Work
         rdf:about="">
        <dc:format>image/svg+xml</dc:format>
        <dc:type
           rdf:resource="http://purl.org/dc/dcmitype/StillImage" />
        <dc:title />
      </cc:Work>
    </rdf:RDF>
  </metadata>
  <g
     inkscape:label="Capa 1"
     inkscape:groupmode="layer"
     id="layer1">
    <g
       transform="matrix(1.9275108,0,0,1.8897638,-237.57031,-231.65742)"
       style="font-style:normal;font-weight:normal;font-size:40px;line-height:125%;font-family:sans-serif;letter-spacing:0px;word-spacing:0px;fill:#000000;fill-opacity:1;stroke:none;stroke-width:1px;stroke-linecap:butt;stroke-linejoin:miter;stroke-opacity:1"
       id="flowRoot3336">
      <path
         d="m 48.572266,133.42874 15,0 0,-3 3,0 0,-9 -3,0 0,-3 -15,0 0,15 z m 6,-12 6,0 0,9 -6,0 0,-9 z"
         style="font-style:normal;font-variant:normal;font-weight:normal;font-stretch:normal;font-family:'Acknowledge TT (BRK)';-inkscape-font-specification:'Acknowledge TT (BRK)'"
         id="path3345"
         inkscape:connector-curvature="0" />
      <path
         d="m 75.587891,127.42874 6,0 0,6 6,0 0,-6 -3,0 0,-3 3,0 0,-6 -18,0 0,15 6,0 0,-6 z m 0,-6 6,0 0,3 -6,0 0,-3 z"
         style="font-style:normal;font-variant:normal;font-weight:normal;font-stretch:normal;font-family:'Acknowledge TT (BRK)';-inkscape-font-specification:'Acknowledge TT (BRK)'"
         id="path3347"
         inkscape:connector-curvature="0" />
      <path
         d="m 96.603516,127.42874 3,0 0,3 3.000004,0 0,-3 3,0 0,6 6,0 0,-15 -6,0 0,3 -3,0 0,3 -3.000004,0 0,-3 -3,0 0,-3 -6,0 0,15 6,0 0,-6 z"
         style="font-style:normal;font-variant:normal;font-weight:normal;font-stretch:normal;font-family:'Acknowledge TT (BRK)';-inkscape-font-specification:'Acknowledge TT (BRK)'"
         id="path3349"
         inkscape:connector-curvature="0" />
      <path
         d="m 120.58789,127.42874 6,0 0,6 6,0 0,-15 -18,0 0,15 6,0 0,-6 z m 0,-6 6,0 0,3 -6,0 0,-3 z"
         style="font-style:normal;font-variant:normal;font-weight:normal;font-stretch:normal;font-family:'Acknowledge TT (BRK)';-inkscape-font-specification:'Acknowledge TT (BRK)'"
         id="path3351"
         inkscape:connector-curvature="0" />
      <path
         d="m 141.60352,127.42874 3,0 0,3 3,0 0,3 6,0 0,-3 -3,0 0,-3 -3,0 0,-3 3,0 0,-3 3,0 0,-3 -6,0 0,3 -3,0 0,3 -3,0 0,-6 -6,0 0,15 6,0 0,-6 z"
         style="font-style:normal;font-variant:normal;font-weight:normal;font-stretch:normal;font-family:'Acknowledge TT (BRK)';-inkscape-font-specification:'Acknowledge TT (BRK)'"
         id="path3353"
         inkscape:connector-curvature="0" />
      <path
         d="m 156.61914,133.42874 18,0 0,-3 -12,0 0,-3 6,0 0,-3 -6,0 0,-3 12,0 0,-3 -18,0 0,15 z"
         style="font-style:normal;font-variant:normal;font-weight:normal;font-stretch:normal;font-family:'Acknowledge TT (BRK)';-inkscape-font-specification:'Acknowledge TT (BRK)'"
         id="path3355"
         inkscape:connector-curvature="0" />
      <path
         d="m 183.63477,127.42874 6,0 0,6 6,0 0,-6 -3,0 0,-3 3,0 0,-6 -18,0 0,15 6,0 0,-6 z m 0,-6 6,0 0,3 -6,0 0,-3 z"
         style="font-style:normal;font-variant:normal;font-weight:normal;font-stretch:normal;font-family:'Acknowledge TT (BRK)';-inkscape-font-specification:'Acknowledge TT (BRK)'"
         id="path3357"
         inkscape:connector-curvature="0" />
    </g>
  </g>
</svg>
